<?xml version="1.0" standalone="no"?><!DOCTYPE svg PUBLIC "-//W3C//DTD SVG 1.1//EN" "http://www.w3.org/Graphics/SVG/1.1/DTD/svg11.dtd"><svg t="1742440816080" class="icon" viewBox="0 0 1024 1024" version="1.1" xmlns="http://www.w3.org/2000/svg" p-id="31622" xmlns:xlink="http://www.w3.org/1999/xlink" width="200" height="200"><path d="M677.66496 312.064a49.76 49.76 0 0 0-74.08 0 59.648 59.648 0 0 0 0 79.968 178.784 178.784 0 0 1 0 239.776 59.616 59.616 0 0 0 0 79.936 49.696 49.696 0 0 0 74.08 0 299.104 299.104 0 0 0 0-399.68z m-245.12-207.104L209.31296 285.824H69.98496a72.096 72.096 0 0 0-69.92 74.208V663.296a72.704 72.704 0 0 0 69.888 74.56H209.31296l223.232 180.864c31.232 25.12 55.904 11.36 55.904-30.336V135.296c0-41.184-25.152-55.264-55.904-30.336z m453.44 47.264a49.76 49.76 0 0 0-74.08 0 59.616 59.616 0 0 0 0 79.936 418.304 418.304 0 0 1 0 559.488 59.648 59.648 0 0 0 0 79.968 49.76 49.76 0 0 0 74.08 0c184.064-204.48 184.064-514.944 0-719.392z" fill="#FFD23C" p-id="31623"></path></svg>