<?xml version="1.0" standalone="no"?><!DOCTYPE svg PUBLIC "-//W3C//DTD SVG 1.1//EN" "http://www.w3.org/Graphics/SVG/1.1/DTD/svg11.dtd"><svg t="1742440901678" class="icon" viewBox="0 0 1024 1024" version="1.1" xmlns="http://www.w3.org/2000/svg" p-id="7392" xmlns:xlink="http://www.w3.org/1999/xlink" width="200" height="200"><path d="M1013.248 685.4656c6.656 9.216 10.752 21.4016 10.752 34.2016a55.3984 55.3984 0 0 1-10.752 34.2016c-14.336 18.8416-36.6592 18.8416-50.9952 0L870.4 631.1936l-91.8528 122.6752a32.9728 32.9728 0 0 1-25.6 14.0288 32.9728 32.9728 0 0 1-25.3952-14.0288A58.88 58.88 0 0 1 716.8 719.6672c0-12.8 3.584-24.9856 10.752-34.2016l91.3408-121.856-91.3408-122.0608A58.88 58.88 0 0 1 716.8 407.552c0-12.8 3.584-24.9856 10.24-34.2016 13.7216-18.8416 36.6592-18.8416 50.9952-0.6144l0.512 0.6144 91.8528 121.9584 91.8528-122.5728c13.824-18.8416 36.7616-18.8416 50.9952-0.6144 6.656 9.216 10.752 21.4016 10.752 34.2016a58.5728 58.5728 0 0 1-10.24 34.0992l-91.8528 122.5728 91.3408 122.5728zM602.8288 87.1424a70.7584 70.7584 0 0 0-99.9424-24.576l-278.016 183.296H99.9424C45.056 245.76 0 293.0688 0 351.4368V671.744c0 58.368 45.056 105.5744 99.9424 105.5744h124.928l278.528 183.808a70.3488 70.3488 0 0 0 38.5024 11.6736c40.2432 0 72.4992-34.4064 72.4992-76.3904v-769.024a83.8656 83.8656 0 0 0-11.5712-40.2432zM112.128 337.408h129.8432a38.6048 38.6048 0 0 0 22.4256-7.168L512 153.6v716.8L264.3968 693.76a38.6048 38.6048 0 0 0-22.4256-7.168H112.128C107.008 686.592 102.4 681.8816 102.4 675.84V348.16c0-6.0416 4.608-10.752 9.728-10.752z" fill="#FFC906" p-id="7393"></path></svg>